<?xml version="1.0" encoding="UTF-8"?>
<svg id="Layer_2" data-name="Layer 2" xmlns="http://www.w3.org/2000/svg" viewBox="0 0 270.56 278.33">
  <defs>
    <style>
      .cls-1 {
        fill: #0e1a1b;
      }

      .cls-2 {
        fill: #cd601c;
      }

      .cls-3 {
        fill: #f7a85b;
      }

      .cls-4 {
        fill: #0a5e50;
      }

      .cls-5 {
        fill: #fefefe;
      }

      .cls-6 {
        fill: #5dead7;
      }
    </style>
  </defs>
  <g id="Layer_1-2" data-name="Layer 1">
    <g>
      <path class="cls-1" d="M236.04,138.29c19.99,2.25,34.36,18.91,23.53,38.53-1.36,2.47-6.38,8.18-8.98,9.02-11.06,3.57-14.67-10.42-15.7-10.64-4.43-.92-22.1,9.4-28.35,9.09,14.96,17.6,15.71,41.44,4,60.98,13.07-2.18,27.17-1.52,35.98,9.53,6.82,8.56,5.9,18.55-5.72,21.24-46.41,0-96.61,4.13-142.81,1.29C30.65,273.19-16.64,201.44,5.53,137.77c5.33-15.31,19.81-32.36,32-43,7.65-6.67,10.59-6.84,19.04-10.96,6.05-2.95,11.11-6.79,13.86-13.14,10.62-24.58-26.01-37.75-39.08-15.08-2.51,4.35-2.64,12.62-8.07,11.54-8.05-1.6-5.79-20.12-4.44-26.04C23.88,19.08,46.23,2.61,68.16.41c42.68-4.28,82.04,25.55,85.39,68.88,2.4-1.86,11.49-10.14,11.64-12.51.1-1.7-5.2-8.86-4.54-12.1l-1.11-35.39c.84-.86,14.54,6.65,16.67,7.83,3.08,1.71,6.38,3.57,8.83,6.17l.5-10.99c13.69,1.39,20.39,16.41,23.6,28.11,21.67,2.53,38.76,12.03,49.57,31.22,1.72,3.06,11.57,23.29,11.81,25.26.87,7.2-12.35,22.49-18.06,26.82-10.44,7.9-24.97,11.63-37.92,11.59v3c6.88.55,14.78-.76,21.51,0ZM83.54,14.29c-16.99-4.12-34.02,5.05-45,17.5,3.19.48,6.31-1.23,9.51-1.48,18.65-1.48,40.14,10.46,38.48,31.47-2.31,29.28-33.77,35.41-50.51,53.49-14.33,15.48-20.34,43.08-13.48,63.02-5.88,1.46-7.8-7.05-9.51-7.99-3.23-1.78-.56,5.55-.49,5.99.57,3.44,1.04,6.64,2,10,3.3,11.51,8,18.63,15.99,27.52l-2.98.48c8.29,19.2,29.07,36.97,48.78,43.71,3.3,1.13,13.89,4.29,16.71,4.29h14.5l-9.5-6c-27.68-25.17-33.78-66.22-16.02-99.02,20.05-37.05,67.36-38.72,57.25-92.21-1.75-9.24-6.59-22.71-14.73-27.77-.09-.33.11-.73,0-1-.36-.9-.33-1.1-1-2-2.8-3.78-8.23-6.58-12-9-9.73-6.24-15.95-10.24-28-11ZM173.54,40.29c.35,2.48.57,11.09,4.49,11.06.59,0,9.74-5.54,10.05-6.04,1.66-2.67-.31-4.22-1.54-6.01-2.97-4.35-8.95-7.5-12.99-11-2,4.48-.61,7.75-.01,12ZM92.54,173.29c-1.62,5.17-2.3,7.54-3,13-5.77,44.9,32.12,84.79,78.2,73.7,23.18-5.58,38.99-25.57,33.8-49.7-1.32-6.11-3.12-9.26-7-14-10.31-12.58-27.63-17.33-42.98-11.48-11.58,4.41-15.13,12.26-18.02,23.48-.93,3.63-2.69,7-2,11-.17,0-.56.94-1.95.57-8.53-2.28-8.32-14.5-6.33-21.35,4.57-15.71,16.08-26.44,32.28-29.22,5.09-.87,8.88-1.11,14-.01-.33-1.49-1.9-2.18-3-2.99-3.85-6.8-10.68-15.21-5.86-23.37,1.35-2.29,4.45-.58,3.86-3.63,2.09.07,3.06,3.92,4,5-1.23,1.52-.26,2.62.43,4,3.29,6.59,10.64,15.12,16.65,19.41,6.38,4.55,14.58,4.35,22.16,3.33,8.26-1.12,16.19-7.92,24.25-7.82,2.47.03,10,1.56,11.79,3.02,2.8,2.28.08,6.74,3.2,7.04,6.25-7.67.89-15.13-6.49-18.99-10.13-5.29-16.63-3.13-27-4-2.35-.2-6.93-1.1-9-2-8.07-3.52-18.33-16.15-21.04-24.46-2.17-6.66-3.45-20.57.56-26.53,1.05-1.57,1.27-.62,2.48,0,4.23,35.17,50,27.98,67.96,8.42l-4.96-4.42c.26-1.12-.33-2.5.48-4s3.31-1.63,3.57-2.7c1.48-6.24-12.31-27.33-19.05-28.3.13-2.27-1.49-2.59-2.88-3.62-27.59-20.49-59.67.05-72.3,26.94-4.53,9.64-7.89,22.83-14.85,31.15-5.47,6.55-17.61,10.25-25.29,15.71-14.03,9.99-21.59,20.58-26.68,36.82ZM231.54,260.29c-.09-.06.18-1.43-.72-2-9.68-6.13-18.96-3.93-28.71,1.13-.9.47-6.96,4.78-4.06,4.89,4.48-1.33,8.91-1.04,13.48-1.02,8.07.03,15.97.55,24,1,.97-4.68-2.73-3.21-4-4Z"/>
      <path class="cls-3" d="M234.54,66.29c6.74.97,20.53,22.06,19.05,28.3-.25,1.08-2.74,1.18-3.57,2.7s-.22,2.88-.48,4c-.37,1.55.32,2.56-1.44,4.05-2.81,2.39-19.2,7.21-23.34,7.66-11.65,1.28-21.88-2.64-31.14-9.3-2.51-1.8-4.4-5.07-7.08-6.42-1.21-.61-1.43-1.56-2.48,0-4.01,5.96-2.73,19.86-.56,26.53,2.71,8.31,12.97,20.94,21.04,24.46-1.54.13-3.33-.52-.8,1.29,3.76,2.7,6.63,3.18,11.3,2.72l-1.5-2c10.37.87,16.87-1.29,27,4-3.67.85-7.14-.4-11.26.24-10.18,1.59-13.53,7.58-26.11,6.62-13.28-1.01-25.92-6.9-34.63-16.87-.94-1.08-1.91-4.93-4-5-6.35-.21-5.9,11.47-7.22,12.78-.67.66-13,3.56-15.76,4.74-11.3,4.79-23.93,16.51-27.53,28.47-3.57,11.83-4.32,25.03-1.49,37.02-9.91-5.73-13.04-15.95-19.13-24.36-.93-1.28-2.83-1.83-3.34-2.66-1.32-2.14-.16-6.43-.51-8.99.7-5.46,1.38-7.83,3-13l.99,2.48c8.71-10.02,14.27-21.94,25.1-29.9,4.5-3.31,25.15-12.78,26-14,1.29-1.87.5-3.67,1.2-5.32.12-.29,1.5-.58,2.03-1.5,16.77-29.08,27.92-67.52,70.08-62.66,5.5.63,10.37,3,16.61,3.89ZM215.27,69.52c-21.39,4.41-10.63,36.96,10.97,27.97,17.01-7.08,8.08-31.9-10.97-27.97Z"/>
      <path class="cls-2" d="M164.54,139.29c.59,3.05-2.5,1.35-3.86,3.63-4.82,8.15,2,16.56,5.86,23.37-4.73-3.47-1.84-.95-3.74-.05-1.22.58-4.18.69-5.81,1.03-2.14.45-3.39-.97-1.45,2.03-16.2,2.78-27.71,13.51-32.28,29.22-1.99,6.85-2.2,19.07,6.33,21.35,1.39.37,1.78-.56,1.95-.57.29-.01,1.03.91,2,.44,4.45-2.17,7.71-14.6,14.49-19.45,19.15-13.69,42.12-2.72,47.53,19.01,1.13,1.03,3.95-3.01,4.52-3.96,1.06-1.77,2.02-2.61,1.47-5.04,5.2,24.13-10.61,44.13-33.8,49.7-46.08,11.09-83.97-28.8-78.2-73.7.35,2.56-.81,6.85.51,8.99.51.82,2.41,1.37,3.34,2.66,6.1,8.41,9.22,18.63,19.13,24.36-2.83-11.99-2.08-25.19,1.49-37.02,3.6-11.95,16.24-23.67,27.53-28.47,2.76-1.17,15.1-4.08,15.76-4.74,1.33-1.3.87-12.99,7.22-12.78Z"/>
      <path class="cls-6" d="M83.54,14.29c-3.96-.25-8.03.17-12,.01.86,2.36,1.21,3.5,3.99,3l-1.99,1.98c9.07-.2,18.32,3.44,26.51,7,2.96,1.29,7.01,4.63,9.99,5.03s.98-4.57,1.5-6.01c3.77,2.42,9.2,5.22,12,9l1,2c.11.27-.09.67,0,1,.16.59,1.36,1.74,1,1.99-1.94.33-5.64.3-7.25,1.02-2.92,1.31-2.54,22.07-3.03,26.21-3.16,26.51-23.78,31.77-41.63,45.37-14.32,10.9-37.09,39.37-37.09,57.91v15c0,3.77-12.3-1.56-14-6.5-6.86-19.94-.86-47.54,13.48-63.02,16.74-18.08,48.2-24.21,50.51-53.49,1.66-21.01-19.82-32.95-38.48-31.47-3.2.25-6.32,1.97-9.51,1.48,10.98-12.46,28.01-21.62,45-17.5Z"/>
      <path class="cls-5" d="M234.54,66.29c-6.23-.89-11.11-3.26-16.61-3.89-42.15-4.86-53.31,33.58-70.08,62.66-.53.92-1.9,1.21-2.03,1.5-.7,1.65.09,3.45-1.2,5.32-.85,1.22-21.49,10.69-26,14-10.82,7.95-16.38,19.88-25.1,29.9l-.99-2.48c5.1-16.24,12.65-26.83,26.68-36.82,7.68-5.46,19.82-9.16,25.29-15.71,6.95-8.33,10.31-21.51,14.85-31.15,12.63-26.89,44.72-47.43,72.3-26.94,1.39,1.03,3.01,1.35,2.88,3.62Z"/>
      <path class="cls-2" d="M168.54,144.29c8.71,9.96,21.35,15.86,34.63,16.87,12.58.95,15.93-5.03,26.11-6.62,4.12-.64,7.59.6,11.26-.24,7.38,3.86,12.73,11.33,6.49,18.99-3.11-.3-.4-4.77-3.2-7.04-1.79-1.46-9.33-2.99-11.79-3.02-8.06-.1-16,6.7-24.25,7.82-7.57,1.03-15.78,1.23-22.16-3.33-6.02-4.29-13.36-12.82-16.65-19.41-.69-1.38-1.67-2.48-.43-4Z"/>
      <path class="cls-2" d="M249.54,101.29l4.96,4.42c-17.97,19.56-63.73,26.75-67.96-8.42,2.68,1.35,4.58,4.61,7.08,6.42,9.26,6.66,19.49,10.58,31.14,9.3,4.14-.45,20.53-5.27,23.34-7.66,1.75-1.49,1.07-2.51,1.44-4.05Z"/>
      <path class="cls-5" d="M194.54,196.29c-.98,1.24-.1,3.11-2.29,2.85-5.73-.68-13.44-5.95-18.84-7.21-17.9-4.18-27.86,7.3-38.88,18.84l-.98-2.47c2.89-11.23,6.44-19.08,18.02-23.48,15.35-5.85,32.67-1.1,42.98,11.48Z"/>
      <path class="cls-3" d="M133.54,208.29l.98,2.47c11.02-11.54,20.99-23.02,38.88-18.84,5.4,1.26,13.11,6.53,18.84,7.21,2.2.26,1.31-1.61,2.29-2.85,3.88,4.74,5.68,7.89,7,14,.55,2.42-.41,3.27-1.47,5.04-.57.95-3.39,5-4.52,3.96-5.41-21.73-28.38-32.7-47.53-19.01-6.77,4.85-10.04,17.28-14.49,19.45-.97.47-1.71-.45-2-.44-.69-4,1.07-7.37,2-11Z"/>
      <path class="cls-5" d="M83.54,14.29c12.05.76,18.27,4.76,28,11-.52,1.44,1.44,6.4-1.5,6.01s-7.03-3.74-9.99-5.03c-8.19-3.56-17.44-7.2-26.51-7l1.99-1.98c-2.78.5-3.13-.64-3.99-3,3.97.16,8.04-.26,12-.01Z"/>
      <path class="cls-2" d="M211.54,263.29c-4.58-.02-9.01-.31-13.48,1.02-2.9-.11,3.16-4.42,4.06-4.89,9.75-5.06,19.02-7.26,28.71-1.13.9.57.63,1.94.72,2,.56,3.03-1.53,1.92-3.45,2-5.31.21-11.69-1-16.55,1Z"/>
      <path class="cls-2" d="M173.54,40.29c1.61-.45,1.82-3.85,2.01-4,.72-.56,7.24,3.17,8.68,3.81,1.75.78,2.57,2.52,2.31-.81,1.22,1.79,3.19,3.35,1.54,6.01-.31.5-9.46,6.04-10.05,6.04-3.92.03-4.14-8.57-4.49-11.06Z"/>
      <path class="cls-3" d="M186.54,39.29c.26,3.33-.56,1.59-2.31.81-1.44-.64-7.96-4.37-8.68-3.81-.19.15-.41,3.55-2.01,4-.6-4.25-1.99-7.51.01-12,4.04,3.5,10.02,6.65,12.99,11Z"/>
      <path class="cls-4" d="M139.27,65.06c-1.75-9.24-6.59-22.71-14.73-27.77.16.59,1.36,1.74,1,1.99-1.94.33-5.64.3-7.25,1.02-2.92,1.31-2.54,22.07-3.03,26.21-3.16,26.51-23.78,31.77-41.63,45.37-14.32,10.9-37.09,39.37-37.09,57.91v15c0,3.77-12.3-1.56-14-6.5-5.88,1.46-7.8-7.05-9.51-7.99-3.23-1.78-.56,5.55-.49,5.99.57,3.44,1.04,6.64,2,10,3.3,11.51,8,18.63,15.99,27.52l-2.98.48c8.29,19.2,29.07,36.97,48.78,43.71,3.29,1.13,13.89,4.29,16.71,4.29h14.5l-9.5-6c-27.68-25.17-33.78-66.22-16.02-99.02,20.05-37.05,67.36-38.72,57.25-92.21ZM76.52,126.76c-21.22,24.48-30.06,55.8-18,87.05,1.43,3.72,3.65,6.8,5.02,10.47l-8.46-5.03c-3.4-9.04-8.6-17.66-9.52-27.48-3.79-40.75,26.41-71.89,56.97-93.48.12,1.84-.99,3.13-2,4.48-6.01,8.05-17.12,16.04-24.02,23.98Z"/>
      <path class="cls-3" d="M231.54,260.29c1.26.79,4.97-.69,4,4-8.03-.45-15.93-.96-24-1,4.86-2,11.24-.79,16.55-1,1.93-.08,4.01,1.03,3.45-2Z"/>
      <path class="cls-3" d="M166.54,166.29c1.1.81,2.67,1.5,3,2.99-5.12-1.1-8.91-.86-14,.01-1.94-3-.69-1.58,1.45-2.03,1.63-.34,4.59-.45,5.81-1.03,1.9-.9-.99-3.42,3.74.05Z"/>
      <path class="cls-5" d="M204.54,148.29c2.07.9,6.65,1.8,9,2l1.5,2c-4.67.47-7.54-.02-11.3-2.72-2.52-1.81-.74-1.16.8-1.29Z"/>
      <path class="cls-4" d="M124.54,36.29l-1-2c.67.9.64,1.1,1,2Z"/>
      <path class="cls-1" d="M63.54,224.28l-8.46-5.03c-3.4-9.04-8.6-17.66-9.52-27.48-3.79-40.75,26.41-71.89,56.97-93.48.12,1.84-.99,3.13-2,4.48-6.01,8.05-17.12,16.04-24.02,23.98-21.22,24.48-30.06,55.8-18,87.05,1.43,3.72,3.65,6.8,5.02,10.47Z"/>
      <path class="cls-1" d="M215.27,69.52c19.05-3.93,27.98,20.88,10.97,27.97-21.6,8.99-32.36-23.55-10.97-27.97ZM222.04,73.63c-3.67,0-7.09,6.58-3.49,9.15,7.84,5.59,11.34-9.14,3.49-9.15Z"/>
      <path class="cls-6" d="M222.04,73.63c7.85,0,4.34,14.74-3.49,9.15-3.6-2.57-.18-9.15,3.49-9.15Z"/>
    </g>
  </g>
</svg>